# xmcd
#
# Track frame offsets: 
#        150
#        14792
#        31352
#        48357
#        63545
#        73685
#        90682
#        105345
#        121697
#        136780
#        153677
#        169882
#        182207
#        194117
#        206252
#        225810
#        241417
#        260260
#        276102
#        289077
#        303017
#        318405
#
# Disc length: 4421 seconds
#
# Revision: 4
# Processed by: cddbd v1.5.2PL0 Copyright (c) Steve Scherf et al.
# Submitted via: ExactAudioCopy v1.0b3
#
DISCID=34114316
DTITLE=Jan Spálený - The Best Of 1981-1991
DYEAR=1995
DGENRE=Blues
TTITLE0=Mý lásky pouťový
TTITLE1=Asi v tom bude nějakej háček
TTITLE2=Skandál
TTITLE3=Aviatik
TTITLE4=Bojlér Blues
TTITLE5=Já se tě nevzdám
TTITLE6=Blues pro pana Vaňka  
TTITLE7=Blues s modrýma očima (Velkopopovický)
TTITLE8=Posedlej Alois
TTITLE9=Mezi břehy
TTITLE10=Blues o klamné naději
TTITLE11=Sto tisíc modrých sluncí
TTITLE12=Zase budu druhej
TTITLE13=Aceton Blues
TTITLE14=Stoupá dým
TTITLE15=Jsi trochu povadlá
TTITLE16=Myslím na tebe, moje milovaná
TTITLE17=Už zrezly bezy
TTITLE18=Blues nádržní ulice
TTITLE19=Co mi chybí
TTITLE20=Loudání
TTITLE21=Zahrada v dešti
EXTD=
EXTT0=
EXTT1=
EXTT2=
EXTT3=
EXTT4=
EXTT5=
EXTT6=
EXTT7=
EXTT8=
EXTT9=
EXTT10=
EXTT11=
EXTT12=
EXTT13=
EXTT14=
EXTT15=
EXTT16=
EXTT17=
EXTT18=
EXTT19=
EXTT20=
EXTT21=
PLAYORDER=
